<svg id="visual" viewBox="0 0 1080 150" width="1080" height="150" xmlns="http://www.w3.org/2000/svg" xmlns:xlink="http://www.w3.org/1999/xlink" version="1.1"><path d="M0 30L216 21L432 10L648 6L864 19L1080 7L1080 151L864 151L648 151L432 151L216 151L0 151Z" fill="#ffffff"></path><path d="M0 36L216 54L432 76L648 52L864 42L1080 62L1080 151L864 151L648 151L432 151L216 151L0 151Z" fill="#f7f8fa"></path><path d="M0 76L216 83L432 91L648 65L864 90L1080 90L1080 151L864 151L648 151L432 151L216 151L0 151Z" fill="#eff2f6"></path><path d="M0 120L216 117L432 103L648 116L864 110L1080 136L1080 151L864 151L648 151L432 151L216 151L0 151Z" fill="#e8ecf1"></path></svg>