<svg id="visual" viewBox="0 0 1080 150" width="1080" height="150" xmlns="http://www.w3.org/2000/svg" xmlns:xlink="http://www.w3.org/1999/xlink" version="1.1"><path d="M0 128L180 137L360 124L540 126L720 128L900 127L1080 141L1080 0L900 0L720 0L540 0L360 0L180 0L0 0Z" fill="#ffffff"></path><path d="M0 117L180 111L360 113L540 93L720 102L900 90L1080 97L1080 0L900 0L720 0L540 0L360 0L180 0L0 0Z" fill="#fafbfc"></path><path d="M0 94L180 71L360 79L540 82L720 76L900 85L1080 97L1080 0L900 0L720 0L540 0L360 0L180 0L0 0Z" fill="#f5f7f9"></path><path d="M0 71L180 55L360 59L540 68L720 50L900 54L1080 51L1080 0L900 0L720 0L540 0L360 0L180 0L0 0Z" fill="#f1f3f7"></path><path d="M0 49L180 33L360 57L540 49L720 40L900 55L1080 49L1080 0L900 0L720 0L540 0L360 0L180 0L0 0Z" fill="#ecf0f4"></path><path d="M0 24L180 28L360 11L540 36L720 37L900 36L1080 10L1080 0L900 0L720 0L540 0L360 0L180 0L0 0Z" fill="#e8ecf1"></path></svg>