<svg id="visual" viewBox="0 0 1080 150" width="1080" height="150" xmlns="http://www.w3.org/2000/svg" xmlns:xlink="http://www.w3.org/1999/xlink" version="1.1"><path d="M0 13L180 35L360 34L540 21L720 10L900 37L1080 15L1080 151L900 151L720 151L540 151L360 151L180 151L0 151Z" fill="#ffffff"></path><path d="M0 39L180 52L360 49L540 45L720 43L900 41L1080 38L1080 151L900 151L720 151L540 151L360 151L180 151L0 151Z" fill="#bbbbc6"></path><path d="M0 71L180 82L360 68L540 80L720 75L900 71L1080 87L1080 151L900 151L720 151L540 151L360 151L180 151L0 151Z" fill="#7b7c8f"></path><path d="M0 109L180 85L360 105L540 98L720 110L900 96L1080 86L1080 151L900 151L720 151L540 151L360 151L180 151L0 151Z" fill="#40425b"></path><path d="M0 115L180 125L360 111L540 125L720 120L900 132L1080 123L1080 151L900 151L720 151L540 151L360 151L180 151L0 151Z" fill="#080e2c"></path></svg>