<svg id="visual" viewBox="0 0 1080 150" width="1080" height="150" xmlns="http://www.w3.org/2000/svg" xmlns:xlink="http://www.w3.org/1999/xlink" version="1.1"><path d="M0 132L180 126L360 108L540 137L720 107L900 126L1080 126L1080 0L900 0L720 0L540 0L360 0L180 0L0 0Z" fill="#ffffff"></path><path d="M0 111L180 85L360 101L540 81L720 112L900 111L1080 102L1080 0L900 0L720 0L540 0L360 0L180 0L0 0Z" fill="#bbbbc6"></path><path d="M0 88L180 78L360 73L540 77L720 78L900 66L1080 66L1080 0L900 0L720 0L540 0L360 0L180 0L0 0Z" fill="#7b7c8f"></path><path d="M0 41L180 59L360 42L540 63L720 43L900 52L1080 34L1080 0L900 0L720 0L540 0L360 0L180 0L0 0Z" fill="#40425b"></path><path d="M0 22L180 30L360 15L540 14L720 9L900 27L1080 33L1080 0L900 0L720 0L540 0L360 0L180 0L0 0Z" fill="#080e2c"></path></svg>